# Blender 4.1.1
# www.blender.org
mtllib badstairs.mtl
o Cube
v 1.000000 0.071400 -1.000000
v 1.000000 -0.071400 -1.000000
v 1.000000 0.071400 1.000000
v 1.000000 -0.071400 1.000000
v -1.000000 0.071400 -1.000000
v -1.000000 -0.071400 -1.000000
v -1.000000 0.071400 1.000000
v -1.000000 -0.071400 1.000000
v 0.600000 -0.071400 -1.000000
v 0.200000 -0.071400 -1.000000
v -0.200000 -0.071400 -1.000000
v -0.600000 -0.071400 -1.000000
v 0.600000 0.071400 1.000000
v 0.200000 0.071400 1.000000
v -0.200000 0.071400 1.000000
v -0.600000 0.071400 1.000000
v -0.600000 -0.071400 1.000000
v -0.200000 -0.071400 1.000000
v 0.200000 -0.071400 1.000000
v 0.600000 -0.071400 1.000000
v -0.600000 0.071400 -1.000000
v -0.200000 0.071400 -1.000000
v 0.200000 0.071400 -1.000000
v 0.600000 0.071400 -1.000000
v 0.600000 0.237170 1.000000
v 0.200000 0.237170 1.000000
v 0.200000 0.237170 -1.000000
v 0.600000 0.237170 -1.000000
v 0.200000 0.391586 1.000000
v -0.200000 0.391586 1.000000
v -0.200000 0.391586 -1.000000
v 0.200000 0.391586 -1.000000
v -0.200000 0.564891 1.000000
v -0.600000 0.564891 1.000000
v -0.600000 0.564891 -1.000000
v -0.200000 0.564891 -1.000000
v -0.600000 0.724983 1.000000
v -1.000000 0.724983 1.000000
v -1.000000 0.724983 -1.000000
v -0.600000 0.724983 -1.000000
v -1.997821 0.071400 -1.000000
v -1.997821 -0.071400 -1.000000
v -1.997821 0.071400 1.000000
v -1.997821 -0.071400 1.000000
v -6.975496 -0.071400 -1.000000
v -6.975496 -0.071400 1.000000
v -6.975496 0.071400 1.000000
v -6.975496 0.071400 -1.000000
vn 1.0000 -0.0000 -0.0000
vn -0.0000 -0.0000 1.0000
vn -0.0000 -1.0000 -0.0000
vn -0.0000 -0.0000 -1.0000
vn -0.0000 1.0000 -0.0000
vn -1.0000 -0.0000 -0.0000
vt 1.218803 0.490588
vt 2.351171 0.490588
vt 2.351171 0.860637
vt 1.218803 0.860637
vt 1.832855 0.409737
vt 1.832855 0.490588
vt 1.606381 0.490588
vt 1.606381 0.409737
vt 2.512275 1.094088
vt 2.738750 1.094088
vt 2.738750 -0.038281
vt 2.512275 -0.038281
vt 2.351171 0.409737
vt 1.218803 0.409737
vt 2.512275 0.409737
vt 2.512275 0.490588
vt 2.738750 0.490588
vt 2.738750 0.409737
vt 2.059328 0.490588
vt 2.059328 0.409737
vt 2.285802 0.490588
vt 2.285802 0.409737
vt 1.606381 1.094088
vt 1.832855 1.094088
vt 1.832855 -0.038281
vt 1.606381 -0.038281
vt 2.059328 1.094088
vt 2.059328 -0.038281
vt 2.285802 1.094088
vt 2.285802 -0.038281
vt 1.218803 0.584445
vt 2.351171 0.584445
vt 2.351171 0.671873
vt 1.218803 0.671873
vt 1.218803 0.769995
vt 2.351171 0.769995
vt 2.512275 0.584445
vt 2.285802 0.584445
vt 2.059328 0.671873
vt 2.285802 0.671873
vt 2.059328 0.769995
vt 1.832855 0.769995
vt 1.832855 0.860637
vt 1.606381 0.860637
vt 1.041430 1.094088
vt 1.041430 -0.038281
vt -1.776851 -0.038281
vt -1.776851 1.094088
vt 1.041430 0.490588
vt 1.041430 0.409737
vt -1.776851 0.409737
vt -1.776851 0.490588
s 0
usemtl diffuse
f 16/1/1 21/2/1 40/3/1 37/4/1
f 17/5/2 16/6/2 7/7/2 8/8/2
f 9/9/3 2/10/3 4/11/3 20/12/3
f 2/13/1 1/2/1 3/1/1 4/14/1
f 9/15/4 24/16/4 1/17/4 2/18/4
f 6/8/4 5/7/4 21/6/4 12/5/4
f 12/5/4 21/6/4 22/19/4 11/20/4
f 11/20/4 22/19/4 23/21/4 10/22/4
f 10/22/4 23/21/4 24/16/4 9/15/4
f 6/23/3 12/24/3 17/25/3 8/26/3
f 12/24/3 11/27/3 18/28/3 17/25/3
f 11/27/3 10/29/3 19/30/3 18/28/3
f 10/29/3 9/9/3 20/12/3 19/30/3
f 4/18/2 3/17/2 13/16/2 20/15/2
f 20/15/2 13/16/2 14/21/2 19/22/2
f 19/22/2 14/21/2 15/19/2 18/20/2
f 18/20/2 15/19/2 16/6/2 17/5/2
f 1/10/5 24/9/5 13/12/5 3/11/5
f 23/2/6 14/1/6 26/31/6 27/32/6
f 14/1/1 23/2/1 32/33/1 29/34/1
f 21/2/6 16/1/6 34/35/6 35/36/6
f 28/9/5 27/29/5 26/30/5 25/12/5
f 14/21/2 13/16/2 25/37/2 26/38/2
f 13/1/1 24/2/1 28/32/1 25/31/1
f 24/16/4 23/21/4 27/38/4 28/37/4
f 32/29/5 31/27/5 30/28/5 29/30/5
f 23/21/4 22/19/4 31/39/4 32/40/4
f 22/2/6 15/1/6 30/34/6 31/33/6
f 15/19/2 14/21/2 29/40/2 30/39/2
f 36/27/5 35/24/5 34/25/5 33/28/5
f 16/6/2 15/19/2 33/41/2 34/42/2
f 15/1/1 22/2/1 36/36/1 33/35/1
f 22/19/4 21/6/4 35/42/4 36/41/4
f 40/24/5 39/23/5 38/26/5 37/25/5
f 7/7/2 16/6/2 37/43/2 38/44/2
f 21/6/4 5/7/4 39/44/4 40/43/4
f 5/2/6 7/1/6 38/4/6 39/3/6
f 42/13/1 41/2/1 43/1/1 44/14/1
f 6/13/6 8/14/6 7/1/6 5/2/6
f 42/45/3 44/46/3 46/47/3 45/48/3
f 46/14/6 47/1/6 48/2/6 45/13/6
f 43/46/5 41/45/5 48/48/5 47/47/5
f 41/49/4 42/50/4 45/51/4 48/52/4
f 44/50/2 43/49/2 47/52/2 46/51/2
