# Blender 4.1.1
# www.blender.org
mtllib badarch.mtl
o Cube
v -1.000000 -1.000000 1.000000
v -1.000000 1.000000 1.000000
v -1.000000 -1.000000 -1.000000
v -1.000000 1.000000 -1.000000
v 1.000000 -1.000000 1.000000
v 1.000000 1.000000 1.000000
v 1.000000 -1.000000 -1.000000
v 1.000000 1.000000 -1.000000
v -1.000000 3.405626 1.000000
v -1.000000 3.405626 -1.000000
v 1.000000 3.405626 -1.000000
v 1.000000 3.405626 1.000000
v 6.471327 1.000000 -1.000000
v 6.471327 1.000000 1.000000
v 6.471327 3.405626 -1.000000
v 6.471327 3.405626 1.000000
v 8.056267 1.000000 -1.000000
v 8.056267 1.000000 1.000000
v 8.056267 3.405626 -1.000000
v 8.056267 3.405626 1.000000
v 6.471327 -1.262508 -1.000000
v 6.471327 -1.262508 1.000000
v 8.056267 -1.262508 -1.000000
v 8.056267 -1.262508 1.000000
vn -1.0000 -0.0000 -0.0000
vn -0.0000 -0.0000 -1.0000
vn 1.0000 -0.0000 -0.0000
vn -0.0000 -0.0000 1.0000
vn -0.0000 -1.0000 -0.0000
vn -0.0000 1.0000 -0.0000
vt 0.389240 0.258029
vt 0.389240 0.479636
vt 0.610847 0.479636
vt 0.610847 0.258029
vt -0.014232 0.258029
vt -0.014232 0.479636
vt 0.207375 0.479636
vt 0.207375 0.258029
vt -0.014232 0.610846
vt 0.207375 0.610846
vt 0.207375 0.389240
vt -0.014232 0.389240
vt -0.014232 0.746187
vt 0.207375 0.746187
vt 0.813616 0.479636
vt 0.813616 0.746187
vt 0.389240 0.746187
vt 0.610847 0.746187
vt 0.989233 0.479636
vt 0.989233 0.746187
vt 0.813616 0.389240
vt 0.813616 0.610846
vt 0.989233 0.389240
vt 0.989233 0.610846
vt 0.813616 0.228942
vt 0.989233 0.228942
vt 0.389240 0.228942
vt 0.610847 0.228942
s 0
usemtl diffuse
f 1/1/1 2/2/1 4/3/1 3/4/1
f 3/5/2 4/6/2 8/7/2 7/8/2
f 7/4/3 8/3/3 6/2/3 5/1/3
f 5/8/4 6/7/4 2/6/4 1/5/4
f 3/9/5 7/10/5 5/11/5 1/12/5
f 8/7/2 4/6/2 10/13/2 11/14/2
f 11/10/6 10/9/6 9/12/6 12/11/6
f 12/14/4 6/7/4 14/15/4 16/16/4
f 4/3/1 2/2/1 9/17/1 10/18/1
f 2/6/4 6/7/4 12/14/4 9/13/4
f 16/16/4 14/15/4 18/19/4 20/20/4
f 11/10/6 12/11/6 16/21/6 15/22/6
f 6/11/5 8/10/5 13/22/5 14/21/5
f 8/7/2 11/14/2 15/16/2 13/15/2
f 18/2/3 17/3/3 19/18/3 20/17/3
f 15/22/6 16/21/6 20/23/6 19/24/6
f 13/15/2 15/16/2 19/20/2 17/19/2
f 18/19/4 14/15/4 22/25/4 24/26/4
f 22/21/5 21/22/5 23/24/5 24/23/5
f 17/3/3 18/2/3 24/27/3 23/28/3
f 13/15/2 17/19/2 23/26/2 21/25/2
f 14/2/1 13/3/1 21/28/1 22/27/1
