# Blender 4.1.1
# www.blender.org
mtllib what.mtl
o Cube
v 1.000000 0.836843 -0.836843
v 1.000000 -0.836843 -0.836843
v 1.000000 0.836843 0.836843
v 1.000000 -0.836843 0.836843
v -0.823854 0.574174 -0.574174
v -0.823854 -0.574174 -0.574174
v -0.823854 0.574174 0.574174
v -0.823854 -0.574174 0.574174
v 1.000000 1.000000 -1.000000
v 1.000000 -1.000000 -1.000000
v 1.000000 1.000000 1.000000
v 1.000000 -1.000000 1.000000
v 3.426755 0.836843 -0.836843
v 3.426755 -0.836843 -0.836843
v 3.426755 0.836843 0.836843
v 3.426755 -0.836843 0.836843
v -1.000000 -1.000000 -1.000000
v -1.000000 -1.000000 1.000000
v -1.000000 1.000000 1.000000
v -1.000000 1.000000 -1.000000
vn -0.0000 1.0000 -0.0000
vn -0.0000 -0.0000 1.0000
vn -1.0000 -0.0000 -0.0000
vn -0.0000 -1.0000 -0.0000
vn -0.0000 -0.0000 -1.0000
vn 1.0000 -0.0000 -0.0000
vn -0.9241 0.3822 -0.0000
vn -0.9241 -0.0000 -0.3822
vn -0.9241 -0.0000 0.3822
vn -0.9241 -0.3822 -0.0000
vt 0.625000 0.500000
vt 0.875000 0.500000
vt 0.875000 0.750000
vt 0.625000 0.750000
vt 0.375000 0.750000
vt 0.625000 1.000000
vt 0.375000 1.000000
vt 0.428228 0.053228
vt 0.571772 0.053228
vt 0.571772 0.196772
vt 0.428228 0.196772
vt 0.125000 0.500000
vt 0.375000 0.500000
vt 0.125000 0.750000
vt 0.395395 0.520395
vt 0.604605 0.520395
vt 0.375000 0.250000
vt 0.625000 0.250000
vt 0.395395 0.729605
vt 0.604605 0.729605
vt 0.375000 0.000000
vt 0.625000 0.000000
s 0
usemtl Material
f 9/1/1 20/2/1 19/3/1 11/4/1
f 12/5/2 11/4/2 19/6/2 18/7/2
f 8/8/3 7/9/3 5/10/3 6/11/3
f 17/12/4 10/13/4 12/5/4 18/14/4
f 2/15/5 1/16/5 13/16/5 14/15/5
f 17/17/5 20/18/5 9/1/5 10/13/5
f 1/16/6 2/15/6 10/13/6 9/1/6
f 4/19/6 3/20/6 11/4/6 12/5/6
f 3/20/6 1/16/6 9/1/6 11/4/6
f 2/15/6 4/19/6 12/5/6 10/13/6
f 14/15/6 13/16/6 15/20/6 16/19/6
f 4/19/4 2/15/4 14/15/4 16/19/4
f 3/20/2 4/19/2 16/19/2 15/20/2
f 1/16/1 3/20/1 15/20/1 13/16/1
f 8/8/7 6/11/7 17/17/7 18/21/7
f 7/9/8 8/8/8 18/21/8 19/22/8
f 6/11/9 5/10/9 20/18/9 17/17/9
f 5/10/10 7/9/10 19/22/10 20/18/10
