# Blender 4.1.1
# www.blender.org
mtllib carrot.mtl
o Cone
v -1.215113 0.000000 -0.096205
v -1.215113 -0.075216 -0.059983
v -1.215113 -0.093793 0.021408
v -1.215113 -0.041742 0.086677
v -1.215113 0.041742 0.086677
v -1.215113 0.093793 0.021408
v -1.215113 0.075216 -0.059983
v 1.000000 -0.000000 0.000000
v -1.000000 0.000000 -0.300000
v -1.000000 -0.234549 -0.187047
v -1.000000 -0.292478 0.066756
v -1.000000 -0.130165 0.270291
v -1.000000 0.130165 0.270291
v -1.000000 0.292478 0.066756
v -1.000000 0.234549 -0.187047
v -1.696824 -0.073014 0.305031
v -1.696824 0.073014 0.305031
v -1.662363 0.356112 0.243966
v -1.662363 0.408163 0.178696
v -1.597600 0.432014 0.054244
v -1.597600 0.413437 -0.027146
v -1.590859 0.140024 -0.255480
v -1.590859 0.215239 -0.219258
v -1.812690 -0.025281 -0.360515
v -1.812690 -0.100497 -0.324293
v -1.723642 -0.265413 -0.154899
v -1.723642 -0.283990 -0.073509
v -1.703263 -0.296666 0.097389
v -1.703263 -0.244615 0.162659
vn 0.1339 -0.4300 -0.8929
vn 0.1339 -0.9661 -0.2205
vn 0.1339 -0.7748 0.6179
vn 0.1339 -0.0000 0.9910
vn 0.1339 0.7748 0.6179
vn -1.0000 -0.0000 -0.0000
vn 0.1339 0.9661 -0.2205
vn 0.1339 0.4300 -0.8929
vn -0.6492 -0.3300 -0.6853
vn -0.6492 -0.7415 -0.1692
vn -0.6492 -0.5947 0.4742
vn -0.6492 -0.0000 0.7606
vn -0.6492 0.5947 0.4742
vn -0.6492 0.7415 -0.1692
vn -0.6492 0.3300 -0.6853
vn 0.4129 -0.0000 0.9108
vn 0.6095 0.6198 0.4943
vn 0.6445 0.7454 -0.1701
vn 0.4776 0.3812 -0.7916
vn 0.3848 -0.4005 -0.8316
vn 0.3763 -0.9033 -0.2062
vn 0.3888 -0.7203 0.5744
vt 0.573152 0.684545
vt 0.573152 -0.000000
vt 0.687687 0.684140
vt 0.114535 0.684444
vt 0.171922 -0.000000
vt 0.229308 0.684444
vt 0.229308 0.684545
vt 0.229308 -0.000000
vt 0.343843 0.684140
vt 0.000000 0.684545
vt 0.000000 -0.000000
vt 0.114535 0.684140
vt 0.343843 0.684140
vt 0.458379 -0.000000
vt 0.458379 0.684545
vt 0.931261 0.132879
vt 0.931261 0.199200
vt 0.866602 0.184442
vt 0.458378 0.684444
vt 0.515765 -0.000000
vt 0.573152 0.684444
vt 0.687687 0.684545
vt 0.687687 -0.000000
vt 0.802222 0.684140
vt 0.102913 0.150605
vt 0.027124 0.025916
vt 0.141897 0.025916
vt 0.841206 0.357863
vt 0.916995 0.233174
vt 0.878011 0.357863
vt 0.878011 0.607240
vt 0.802222 0.482551
vt 0.916995 0.482551
vt 0.335443 0.126474
vt 0.259653 0.001786
vt 0.374426 0.001786
vt 0.942391 0.124688
vt 0.866602 0.000000
vt 0.981375 0.000000
vt 0.841206 0.482551
vt 0.916995 0.357863
vt 0.878011 0.482551
vt 0.298637 0.251163
vt 0.374426 0.126474
vt 0.335443 0.251163
vt 0.243872 0.882960
vt 0.010640 0.832637
vt 0.243829 0.846155
vt 0.474092 0.953100
vt 0.228022 0.916599
vt 0.478818 0.916599
vt 0.231023 0.953100
vt 0.013174 0.989088
vt 0.005457 0.953100
vt 0.218430 0.916599
vt 0.033075 0.953082
vt 0.028209 0.916599
vt 0.767110 0.916599
vt 0.483991 0.953040
vt 0.478818 0.916599
vt 0.768930 0.953040
vt 0.529287 0.989692
vt 0.525934 0.953040
vt 0.474195 0.953100
vt 0.243364 0.989614
vt 0.238740 0.953100
vt 0.947230 0.166039
vt 0.895378 0.207390
vt 0.866602 0.147636
vt 0.895378 0.124688
vt 0.066108 0.150605
vt 0.802222 0.233174
vt 0.841206 0.607240
vt 0.298637 0.126474
vt 0.905586 0.124688
vt 0.802222 0.357863
vt 0.259653 0.126474
vt 0.010714 0.897017
vt 0.223297 0.953100
vt 0.238740 0.989088
vt 0.223297 0.953082
vt 0.772283 0.953040
vt 0.772283 0.989692
vt 0.478818 0.989614
s 0
usemtl carrot
f 9/1/1 8/2/1 10/3/1
f 10/4/2 8/5/2 11/6/2
f 11/7/3 8/8/3 12/9/3
f 12/10/4 8/11/4 13/12/4
f 13/13/5 8/14/5 14/15/5
f 7/16/6 2/17/6 4/18/6
f 14/19/7 8/20/7 15/21/7
f 15/22/8 8/23/8 9/24/8
f 2/25/9 9/26/9 10/27/9
f 2/28/10 11/29/10 3/30/10
f 4/31/11 11/32/11 12/33/11
f 5/34/12 12/35/12 13/36/12
f 6/37/13 13/38/13 14/39/13
f 6/40/14 15/41/14 7/42/14
f 7/43/15 9/44/15 1/45/15
f 5/46/16 16/47/16 4/48/16
f 6/49/17 18/50/17 5/51/17
f 6/52/18 21/53/18 20/54/18
f 7/55/19 22/56/19 23/57/19
f 1/58/20 25/59/20 24/60/20
f 2/61/21 27/62/21 26/63/21
f 3/64/22 29/65/22 28/66/22
f 7/16/6 1/67/6 2/17/6
f 2/17/6 3/68/6 4/18/6
f 4/18/6 5/69/6 6/70/6
f 6/70/6 7/16/6 4/18/6
f 2/25/9 1/71/9 9/26/9
f 2/28/10 10/72/10 11/29/10
f 4/31/11 3/73/11 11/32/11
f 5/34/12 4/74/12 12/35/12
f 6/37/13 5/75/13 13/38/13
f 6/40/14 14/76/14 15/41/14
f 7/43/15 15/77/15 9/44/15
f 5/46/16 17/78/16 16/47/16
f 6/49/17 19/79/17 18/50/17
f 6/52/18 7/80/18 21/53/18
f 7/55/19 1/81/19 22/56/19
f 1/58/20 2/82/20 25/59/20
f 2/61/21 3/83/21 27/62/21
f 3/64/22 4/84/22 29/65/22
