# Blender 4.1.1
# www.blender.org
mtllib bush.mtl
o Plane
v -1.000000 0.000000 0.000000
v 1.000000 0.000000 0.000000
v -1.000000 2.000000 -0.000000
v 1.000000 2.000000 -0.000000
vn -0.0000 -0.0000 1.0000
vt 0.000000 0.000000
vt 1.000000 0.000000
vt 1.000000 1.000000
vt 0.000000 1.000000
s 0
usemtl diffuse
f 1/1/1 2/2/1 4/3/1 3/4/1
o Plane.001
v -0.000000 0.000000 -1.000000
v 0.000000 0.000000 1.000000
v 0.000000 2.000000 -1.000000
v 0.000000 2.000000 1.000000
vn -1.0000 -0.0000 -0.0000
vt 0.000000 0.000000
vt 1.000000 0.000000
vt 1.000000 1.000000
vt 0.000000 1.000000
s 0
usemtl diffuse.001
f 5/5/2 6/6/2 8/7/2 7/8/2
o Plane.002
v -0.000000 0.000000 -1.000000
v 0.000000 0.000000 1.000000
v 0.000000 2.000000 -1.000000
v 0.000000 2.000000 1.000000
vn 1.0000 -0.0000 -0.0000
vt 0.000000 0.000000
vt 0.000000 1.000000
vt 1.000000 1.000000
vt 1.000000 0.000000
s 0
usemtl diffuse.002
f 9/9/3 11/10/3 12/11/3 10/12/3
o Plane.003
v -1.000000 0.000000 0.000000
v 1.000000 0.000000 0.000000
v -1.000000 2.000000 -0.000000
v 1.000000 2.000000 -0.000000
vn -0.0000 -0.0000 -1.0000
vt 0.000000 0.000000
vt 0.000000 1.000000
vt 1.000000 1.000000
vt 1.000000 0.000000
s 0
usemtl diffuse.003
f 13/13/4 15/14/4 16/15/4 14/16/4
