# Blender 4.2.0
# www.blender.org
mtllib houseb.mtl
o Cube.002
v -3.137282 5.129518 0.000000
v 3.137282 5.129518 0.000000
v -3.137282 4.133399 -1.568641
v 3.137282 4.133399 -1.568641
v 3.137282 2.496118 0.000000
v -3.137282 2.496118 0.000000
v 3.137282 1.998059 -1.568641
v -3.137282 1.998059 -1.568641
vn -0.0000 0.8442 -0.5361
vn 1.0000 -0.0000 -0.0000
vn -1.0000 -0.0000 -0.0000
vn -0.0000 -0.9531 0.3026
vt 1.000000 0.625000
vt 0.000000 0.625000
vt 0.000000 0.375000
vt 1.000000 0.375000
vt 0.625000 0.270308
vt 0.625000 0.610625
vt 0.375000 0.769380
vt 0.375000 0.349686
s 0
usemtl diffuse
f 4/1/1 3/2/1 1/3/1 2/4/1
f 7/5/2 4/6/2 2/7/2 5/8/2
f 6/8/3 1/7/3 3/6/3 8/5/3
f 6/3/4 8/2/4 7/1/4 5/4/4
