# Blender 4.2.0
# www.blender.org
mtllib house.mtl
o Cube
v -3.137282 -0.137282 3.137282
v -3.137282 3.137282 3.137282
v 3.137282 -0.137282 3.137282
v 3.137282 3.137282 3.137282
v -3.137282 -0.137282 0.000000
v -3.137282 5.129518 0.000000
v 3.137282 -0.137282 0.000000
v 3.137282 5.129518 0.000000
v -3.137282 1.500000 3.137282
v 3.137282 1.500000 3.137282
v 3.137282 2.496118 0.000000
v -3.137282 2.496118 0.000000
vn 1.0000 -0.0000 -0.0000
vn -0.0000 -0.0000 1.0000
vn -0.0000 -1.0000 -0.0000
vn -0.0000 0.8442 0.5361
vn -1.0000 -0.0000 -0.0000
vn -0.0000 -0.0000 -1.0000
vt 0.777778 0.611514
vt 0.777778 1.031208
vt 0.277778 0.713698
vt 0.277778 0.452759
vt 1.000000 0.452759
vt 1.000000 0.713698
vt 0.000000 0.713698
vt 0.000000 0.452759
vt 0.000000 0.777778
vt 1.000000 0.777778
vt 1.000000 0.277778
vt 0.000000 0.277778
vt 0.277778 0.191819
vt 0.777778 0.191819
vt 1.000000 0.191819
vt 0.000000 0.191819
vt 0.000000 0.611514
vt 1.000000 0.611514
s 0
usemtl diffuse
f 11/1/1 8/2/1 4/3/1 10/4/1
f 10/5/2 4/6/2 2/7/2 9/8/2
f 5/9/3 7/10/3 3/11/3 1/12/3
f 8/10/4 6/9/4 2/12/4 4/11/4
f 9/4/5 2/3/5 6/2/5 12/1/5
f 1/13/5 9/4/5 12/1/5 5/14/5
f 3/15/2 10/5/2 9/8/2 1/16/2
f 7/14/1 11/1/1 10/4/1 3/13/1
f 7/15/6 5/16/6 12/17/6 11/18/6
o Cube.001
v -3.137282 -0.137282 -3.137282
v -3.137282 3.137282 -3.137282
v 3.137282 -0.137282 -3.137282
v 3.137282 3.137282 -3.137282
v -3.137282 4.133399 -1.568641
v 3.137282 -0.137282 -1.568641
v -3.137282 -0.137282 -1.568641
v 3.137282 4.133399 -1.568641
v -3.137282 1.500000 -3.137282
v 3.137282 1.500000 -3.137282
v 3.137282 1.998059 -1.568641
v -3.137282 1.998059 -1.568641
vn -1.0000 -0.0000 -0.0000
vn -0.0000 -0.0000 -1.0000
vn 1.0000 -0.0000 -0.0000
vn -0.0000 -1.0000 -0.0000
vn -0.0000 0.8442 -0.5361
vn -0.0000 -0.0000 1.0000
vt 0.361111 0.563005
vt 0.361111 0.903322
vt 0.611111 0.744567
vt 0.611111 0.483628
vt 0.000000 0.483628
vt 0.000000 0.744567
vt 1.000000 0.744567
vt 1.000000 0.483628
vt 0.000000 0.611111
vt 1.000000 0.611111
vt 1.000000 0.361111
vt 0.000000 0.361111
vt 0.611111 0.222688
vt 0.361111 0.222688
vt 0.000000 0.222688
vt 1.000000 0.222688
vt 1.000000 0.563005
vt 0.000000 0.563005
s 0
usemtl diffuse
f 24/19/7 17/20/7 14/21/7 21/22/7
f 21/23/8 14/24/8 16/25/8 22/26/8
f 22/22/9 16/21/9 20/20/9 23/19/9
f 13/27/10 15/28/10 18/29/10 19/30/10
f 16/28/11 14/27/11 17/30/11 20/29/11
f 15/31/9 22/22/9 23/19/9 18/32/9
f 19/33/12 18/34/12 23/35/12 24/36/12
f 13/33/8 21/23/8 22/26/8 15/34/8
f 19/32/7 24/19/7 21/22/7 13/31/7
o Cube.002
v -3.137282 5.129518 0.000000
v 3.137282 5.129518 0.000000
v -3.137282 4.133399 -1.568641
v 3.137282 4.133399 -1.568641
v 3.137282 2.496118 0.000000
v -3.137282 2.496118 0.000000
v 3.137282 1.998059 -1.568641
v -3.137282 1.998059 -1.568641
vn -0.0000 0.8442 -0.5361
vn 1.0000 -0.0000 -0.0000
vn -1.0000 -0.0000 -0.0000
vn -0.0000 -0.9531 0.3026
vt 1.000000 0.625000
vt 0.000000 0.625000
vt 0.000000 0.375000
vt 1.000000 0.375000
vt 0.625000 0.270308
vt 0.625000 0.610625
vt 0.375000 0.769380
vt 0.375000 0.349686
s 0
usemtl diffuse
f 28/37/13 27/38/13 25/39/13 26/40/13
f 31/41/14 28/42/14 26/43/14 29/44/14
f 30/44/15 25/43/15 27/42/15 32/41/15
f 30/39/16 32/38/16 31/37/16 29/40/16
